# xmcd
#
# Track frame offsets:
#	150
#	8961
#	15693
#	27054
#	36443
#	49845
#	57812
#	65819
#	79524
#	91704
#
# Disc length: 1353 seconds
#
# Revision: 0
# Processed by: cddbd v1.5.1PL2 Copyright (c) Steve Scherf et al.
# Submitted via: EasyCDDAExtractor 8.0.1.1
#
DISCID=7405470a
DTITLE=Willie Nelson - Irish Star - His Greatest Hits
DYEAR=2005
DGENRE=Country
TTITLE0=I'm Going To Lose A Lot Of Teardrops
TTITLE1=Why Are You Picking On Me
TTITLE2=Let's Pretend
TTITLE3=Rainy Day Blues
TTITLE4=Shelter Of My Arms
TTITLE5=Broken Promises
TTITLE6=The Last Letter
TTITLE7=Happiness Lives Next Door
TTITLE8=Touch Me
TTITLE9=Blame It On The Times
EXTD=
EXTT0=
EXTT1=
EXTT2=
EXTT3=
EXTT4=
EXTT5=
EXTT6=
EXTT7=
EXTT8=
EXTT9=
PLAYORDER=
